HIERARCHY
ROOT Hips
{
	OFFSET 50.639400 -1.081548 51.754700
	CHANNELS 6 Xposition Yposition Zposition Xrotation Yrotation Zrotation
	JOINT spine
	{
		OFFSET 0.000000 -0.448574 7.800591
		CHANNELS 3 Xrotation Yrotation Zrotation
		JOINT spine1
		{
			OFFSET 0.000000 -0.000002 10.136398
			CHANNELS 3 Xrotation Yrotation Zrotation
			JOINT spine2
			{
				OFFSET 0.000000 -0.000002 9.712509
				CHANNELS 3 Xrotation Yrotation Zrotation
				JOINT Neck
				{
					OFFSET 0.000000 -1.188874 24.936104
					CHANNELS 3 Xrotation Yrotation Zrotation
					JOINT Head
					{
						OFFSET 0.000000 -0.000001 7.533844
						CHANNELS 3 Xrotation Yrotation Zrotation
						End Site
						{
							OFFSET 0.000000 6.014017 18.236099
						}
					}
				}
				JOINT RightShoulder
				{
					OFFSET -4.089649 0.569455 10.488800
					CHANNELS 3 Xrotation Yrotation Zrotation
					JOINT RightArm
					{
						OFFSET 0.000000 -0.000002 13.756996
						CHANNELS 3 Xrotation Yrotation Zrotation
						JOINT RightArmRoll
						{
							OFFSET 0.000000 -0.000001 6.944778
							CHANNELS 3 Xrotation Yrotation Zrotation
							JOINT RightForeArm
							{
								OFFSET 0.000000 -0.000003 20.227707
								CHANNELS 3 Xrotation Yrotation Zrotation
								JOINT RightForeArmRoll
								{
									OFFSET 0.000000 -0.000001 7.793121
									CHANNELS 3 Xrotation Yrotation Zrotation
									JOINT RightHand
									{
										OFFSET 0.000000 -0.000003 15.639099
										CHANNELS 3 Xrotation Yrotation Zrotation
										End Site
										{
											OFFSET 0.000000 0.000000 0.100006
										}
									}
								}
							}
						}
					}
				}
				JOINT LeftShoulder
				{
					OFFSET 4.089649 0.569455 10.488800
					CHANNELS 3 Xrotation Yrotation Zrotation
					JOINT LeftArm
					{
						OFFSET 0.000000 -0.000002 13.756996
						CHANNELS 3 Xrotation Yrotation Zrotation
						JOINT LeftArmRoll
						{
							OFFSET 0.000000 -0.000001 6.944778
							CHANNELS 3 Xrotation Yrotation Zrotation
							JOINT LeftForeArm
							{
								OFFSET 0.000000 -0.000003 20.227707
								CHANNELS 3 Xrotation Yrotation Zrotation
								JOINT LeftForeArmRoll
								{
									OFFSET 0.000000 -0.000001 7.793121
									CHANNELS 3 Xrotation Yrotation Zrotation
									JOINT LeftHand
									{
										OFFSET 0.000000 -0.000003 15.639099
										CHANNELS 3 Xrotation Yrotation Zrotation
										End Site
										{
											OFFSET 0.000000 0.000000 0.100006
										}
									}
								}
							}
						}
					}
				}
			}
		}
	}
	JOINT RightUpLeg
	{
		OFFSET -6.914158 1.063580 -1.267879
		CHANNELS 3 Xrotation Yrotation Zrotation
		JOINT RightUpLegRoll
		{
			OFFSET 0.000000 -0.000003 18.337795
			CHANNELS 3 Xrotation Yrotation Zrotation
			JOINT RightLeg
			{
				OFFSET 0.000000 0.000004 -22.708500
				CHANNELS 3 Xrotation Yrotation Zrotation
				JOINT RightLegRoll
				{
					OFFSET 0.000000 -0.000004 22.782803
					CHANNELS 3 Xrotation Yrotation Zrotation
					JOINT RightFoot
					{
						OFFSET 0.000000 -0.000003 18.962898
						CHANNELS 3 Xrotation Yrotation Zrotation
						JOINT RightToeBase
						{
							OFFSET 0.000000 -0.000003 15.851997
							CHANNELS 3 Xrotation Yrotation Zrotation
							End Site
							{
								OFFSET 0.006718 0.884891 7.677010
							}
						}
					}
				}
			}
		}
	}
	JOINT LeftUpLeg
	{
		OFFSET 6.914158 1.063580 -1.267879
		CHANNELS 3 Xrotation Yrotation Zrotation
		JOINT LeftUpLegRoll
		{
			OFFSET 0.000000 -0.000003 18.337902
			CHANNELS 3 Xrotation Yrotation Zrotation
			JOINT LeftLeg
			{
				OFFSET 0.000000 -0.000004 22.708405
				CHANNELS 3 Xrotation Yrotation Zrotation
				JOINT LeftLegRoll
				{
					OFFSET 0.000000 -0.000004 22.993401
					CHANNELS 3 Xrotation Yrotation Zrotation
					JOINT LeftFoot
					{
						OFFSET 0.000000 -0.000003 18.752205
						CHANNELS 3 Xrotation Yrotation Zrotation
						JOINT LeftToeBase
						{
							OFFSET 0.000000 -0.000003 15.852005
							CHANNELS 3 Xrotation Yrotation Zrotation
							End Site
							{
								OFFSET -0.030113 0.884892 7.677002
							}
						}
					}
				}
			}
		}
	}
}
MOTION
Frames: 8
Frame Time: 0.041667
57.888798 -35.906509 94.056702 -5.090864 2.286295 2.405964 -1.319327 -0.373005 -0.012595 1.364069 -0.754448 -0.020306 3.009211 -0.754758 -0.011328 17.259997 -3.161313 -0.314257 -11.506957 2.219953 -0.295749 -21.289773 -77.997987 -24.872127 117.796229 -60.173946 63.118652 -0.000000 -0.000001 -0.000002 83.824330 1.707195 -3.939200 -0.000001 0.000011 -2.999981 -4.999809 -7.999901 0.000011 -1.665465 60.370000 2.145874 -35.419858 121.799581 41.190883 0.000000 -0.000004 0.000003 5.975304 13.122521 0.078882 -0.000001 0.000000 3.000001 -5.000220 7.998747 -0.000176 -0.641578 179.087068 -2.530217 -179.999991 0.000005 -1.019005 171.145184 0.104736 -0.635688 -0.000003 -0.000003 0.013653 68.072541 6.018139 4.400089 25.456955 -7.355615 0.000001 0.004617 175.751983 3.699980 -0.000005 -0.000004 -1.265450 -14.925698 4.305681 0.955207 0.000003 -0.000002 -0.298944 74.501156 -7.196516 -0.766095 25.579390 7.355593 -0.009886 
57.864395 -35.862400 94.053291 -5.062619 2.285279 2.425169 -1.315666 -0.372998 -0.012910 1.371390 -0.753884 -0.021833 3.016533 -0.754204 -0.012857 17.243994 -3.097971 -0.314470 -11.498952 2.194261 -0.296004 -21.211344 -77.954691 -24.789096 117.920033 -60.154207 63.292638 -0.000000 -0.000001 0.000003 83.758453 1.659769 -3.884005 0.000000 0.000005 -2.999980 -4.999809 -7.999900 0.000008 -1.690558 60.418200 2.180394 -35.495837 121.741428 41.300078 -0.000001 -0.000004 0.000003 6.079796 13.156696 0.066744 -0.000001 0.000001 3.000001 -5.000221 7.998747 -0.000174 -0.684088 179.081071 -2.535548 -179.999991 0.000005 -1.019004 171.138572 0.101765 -0.637135 -0.000003 -0.000003 0.013890 68.060752 6.019555 4.394606 25.456953 -7.355616 0.000001 -0.052132 175.747994 3.701388 -0.000005 -0.000004 -1.264490 -14.945632 4.304384 0.956220 0.000002 -0.000002 -0.298944 74.494770 -7.194873 -0.773179 25.578080 7.355592 -0.009890 
57.864796 -35.865612 94.053101 -5.033680 2.283877 2.443393 -1.312258 -0.372885 -0.013070 1.378220 -0.753101 -0.023087 3.023363 -0.753424 -0.014114 17.228563 -3.037380 -0.314501 -11.490972 2.172176 -0.296122 -21.133751 -77.911783 -24.706912 118.042662 -60.135226 63.465127 -0.000000 -0.000000 0.000001 83.693122 1.612364 -3.829165 0.000000 0.000005 -2.999982 -4.999812 -7.999892 0.000006 -1.716056 60.466183 2.215357 -35.572622 121.684615 41.410802 -0.000002 -0.000005 0.000003 6.182094 13.191964 0.054520 -0.000002 0.000002 3.000003 -5.000224 7.998748 -0.000175 -0.728027 179.076072 -2.540559 -179.999991 0.000005 -1.017994 171.130881 0.098807 -0.637584 -0.000003 -0.000003 0.014205 68.049147 6.020881 4.389398 25.456959 -7.355617 0.000001 -0.108978 175.744019 3.703109 -0.000005 -0.000004 -1.263540 -14.964770 4.303297 0.957166 0.000002 -0.000002 -0.298944 74.488219 -7.193361 -0.779993 25.576659 7.355596 -0.009880 
57.865295 -35.856411 94.055191 -5.004261 2.282207 2.460935 -1.309006 -0.372701 -0.013119 1.384710 -0.752162 -0.024149 3.029852 -0.752487 -0.015183 17.213487 -2.978723 -0.314379 -11.482914 2.152596 -0.296150 -21.056961 -77.869163 -24.625528 118.166890 -60.115794 63.639202 -0.000001 0.000001 0.000005 83.628283 1.564954 -3.774650 0.000001 0.000011 -2.999982 -4.999814 -7.999896 0.000006 -1.741855 60.513857 2.250652 -35.650514 121.628129 41.523305 -0.000003 -0.000004 0.000002 6.282869 13.228010 0.042180 -0.000001 0.000001 3.000001 -5.000221 7.998747 -0.000174 -0.772967 179.072083 -2.545360 -179.999991 0.000005 -1.017994 171.122453 0.095835 -0.639030 -0.000003 -0.000003 0.014573 68.037748 6.022194 4.384075 25.456957 -7.355617 0.000001 -0.165893 175.740016 3.705054 -0.000005 -0.000005 -1.262620 -14.983408 4.302363 0.958070 0.000002 -0.000002 -0.298944 74.481499 -7.191963 -0.786531 25.575346 7.355595 -0.009884 
57.852795 -35.844612 94.052200 -4.974568 2.280387 2.478095 -1.305868 -0.372475 -0.013107 1.391000 -0.751134 -0.025102 3.036142 -0.751460 -0.016144 17.198751 -2.921170 -0.314165 -11.474871 2.134459 -0.296121 -20.980533 -77.826529 -24.544514 118.289751 -60.096922 63.811623 0.000002 0.000000 -0.000002 83.563717 1.517466 -3.720327 -0.000000 0.000008 -2.999982 -4.999810 -7.999906 0.000006 -1.767865 60.561525 2.286184 -35.729191 121.571862 41.636936 0.000000 -0.000004 0.000002 6.382775 13.264422 0.029730 -0.000001 0.000002 3.000002 -5.000223 7.998746 -0.000175 -0.818479 179.068094 -2.550027 -179.999991 0.000005 -1.016996 171.113574 0.092877 -0.640475 -0.000003 -0.000003 0.014974 68.026444 6.023444 4.378935 25.456959 -7.355617 0.000001 -0.222847 175.737024 3.707117 -0.000005 -0.000004 -1.261700 -15.001646 4.301514 0.958940 0.000003 -0.000001 -0.298944 74.474791 -7.190582 -0.792972 25.574031 7.355601 -0.009880 
57.827297 -35.817608 94.049400 -4.944798 2.278557 2.495154 -1.302736 -0.372239 -0.013078 1.397250 -0.750084 -0.026028 3.042392 -0.750410 -0.017077 17.184035 -2.863894 -0.313902 -11.466931 2.116681 -0.296070 -20.904974 -77.784059 -24.464368 118.413992 -60.077436 63.985622 -0.000001 0.000001 0.000002 83.499199 1.469895 -3.666070 0.000001 0.000009 -2.999981 -4.999811 -7.999899 0.000008 -1.793984 60.609091 2.321836 -35.808312 121.515732 41.751184 -0.000002 -0.000004 0.000003 6.482501 13.300887 0.017163 -0.000004 0.000002 3.000002 -5.000223 7.998746 -0.000174 -0.864130 179.064092 -2.554654 -179.999991 0.000005 -1.015999 171.104613 0.089906 -0.640925 -0.000003 -0.000003 0.015381 68.015229 6.024667 4.373684 25.456955 -7.355615 0.000001 -0.279810 175.734060 3.709216 -0.000005 -0.000004 -1.260780 -15.019887 4.300685 0.959810 0.000002 -0.000002 -0.298944 74.467995 -7.189239 -0.799323 25.572725 7.355600 -0.009884 
57.827595 -35.810711 94.048592 -4.915171 2.276815 2.512407 -1.299568 -0.372024 -0.013081 1.403591 -0.749080 -0.027009 3.048732 -0.749406 -0.018065 17.169231 -2.806066 -0.313642 -11.458885 2.098187 -0.296044 -20.829642 -77.741370 -24.384458 118.536458 -60.058188 64.157510 0.000000 0.000001 0.000000 83.434797 1.422152 -3.611941 -0.000000 0.000006 -2.999983 -4.999810 -7.999899 0.000010 -1.820116 60.656759 2.357507 -35.887552 121.459601 41.865300 -0.000000 -0.000005 0.000003 6.582694 13.337188 0.004452 -0.000003 0.000000 3.000001 -5.000223 7.998744 -0.000174 -0.909501 179.059105 -2.559334 -179.999991 0.000005 -1.015999 171.095856 0.085950 -0.642528 -0.000003 -0.000003 0.015774 68.003925 6.025948 4.368453 25.456959 -7.355616 0.000001 -0.336758 175.731068 3.711280 -0.000005 -0.000004 -1.259860 -15.038222 4.299815 0.960687 0.000002 -0.000002 -0.298944 74.461281 -7.187853 -0.805763 25.571417 7.355598 -0.009878 
57.832096 -35.756809 94.013992 -4.885893 2.275301 2.530156 -1.296276 -0.371860 -0.013162 1.410181 -0.748186 -0.028127 3.055322 -0.748515 -0.019189 17.154128 -2.746857 -0.313433 -11.450833 2.077900 -0.296073 -20.754915 -77.698565 -24.305138 118.660180 -60.038223 64.330997 -0.000000 -0.000001 0.000001 83.370102 1.374246 -3.557795 0.000000 0.000007 -2.999978 -4.999812 -7.999899 0.000008 -1.846164 60.704508 2.393087 -35.967250 121.402460 41.979640 -0.000004 -0.000004 0.000003 6.684034 13.372909 -0.008404 -0.000004 -0.000000 3.000001 -5.000221 7.998746 -0.000175 -0.954152 179.055130 -2.564173 -179.999991 0.000005 -1.015002 171.087619 0.082992 -0.643990 -0.000003 -0.000003 0.016128 67.992429 6.027277 4.363141 25.456957 -7.355615 0.000001 -0.393655 175.727093 3.713202 -0.000005 -0.000004 -1.258930 -15.056957 4.298839 0.961598 0.000002 -0.000002 -0.298944 74.454656 -7.186401 -0.812387 25.570099 7.355598 -0.009881 
